<svg width="22" height="21" viewBox="0 0 22 21" fill="none" xmlns="http://www.w3.org/2000/svg">
<path d="M10.7749 21C4.97575 21 0.274902 16.2991 0.274902 10.5C0.274902 4.70085 4.97575 0 10.7749 0C16.5741 0 21.2749 4.70085 21.2749 10.5C21.2686 16.296 16.5709 20.9937 10.7749 21ZM6.28825 13.4263C6.1528 13.4263 6.0184 13.4431 5.8861 13.4746L5.7286 13.5177L5.1049 14.5855C4.99098 14.7756 4.95439 15.0021 5.00271 15.2183C5.05103 15.4346 5.18056 15.624 5.36454 15.7474C5.54852 15.8709 5.77289 15.919 5.9913 15.8817C6.20971 15.8445 6.40548 15.7248 6.53815 15.5473L6.60325 15.4497L7.43275 14.0101C7.29831 13.8303 7.12409 13.6841 6.92372 13.5828C6.72335 13.4815 6.50226 13.428 6.27775 13.4263H6.28825ZM12.0465 6.993C11.7198 7.29989 11.5032 7.70577 11.4301 8.148C11.313 8.75777 11.4252 9.38929 11.7451 9.92145L14.9371 15.4507C15.0482 15.6377 15.2253 15.7761 15.4336 15.8387C15.6418 15.9013 15.8659 15.8835 16.0617 15.7888C16.2568 15.6926 16.4085 15.5262 16.4864 15.323C16.5642 15.1198 16.5625 14.8947 16.4817 14.6926L16.4302 14.5876L15.5902 13.1271H16.8397C17.0585 13.1253 17.2685 13.0405 17.4272 12.8899C17.586 12.7393 17.6817 12.534 17.695 12.3156C17.7083 12.0972 17.6383 11.8818 17.499 11.713C17.3598 11.5442 17.1617 11.4346 16.9447 11.4061L16.8397 11.3998H14.5927L12.289 7.40985L12.0486 6.98985L12.0465 6.993ZM4.7479 11.3925C4.63507 11.3928 4.5234 11.4153 4.41929 11.4588C4.31518 11.5023 4.22067 11.5659 4.14118 11.646C4.06169 11.7261 3.99878 11.821 3.95604 11.9255C3.91331 12.0299 3.8916 12.1417 3.89215 12.2545C3.89215 12.6892 4.21555 13.0567 4.6471 13.1124L4.7521 13.1176H12.6061C12.693 12.9431 12.7368 12.7503 12.7337 12.5553C12.7305 12.3603 12.6807 12.169 12.5883 11.9973C12.5096 11.8365 12.3925 11.6976 12.2472 11.593C12.1019 11.4884 11.9331 11.4213 11.7556 11.3977L11.6286 11.3914H8.95L12.6544 4.977C12.7685 4.77816 12.7994 4.5423 12.7405 4.32075C12.6986 4.16528 12.6141 4.02459 12.4965 3.91453C12.379 3.80446 12.2331 3.72938 12.0752 3.69774C11.9173 3.6661 11.7537 3.67914 11.6028 3.73541C11.4519 3.79168 11.3198 3.88894 11.2212 4.01625L11.1561 4.11285L10.7749 4.77855L10.398 4.11285C10.2868 3.92568 10.1095 3.78705 9.90104 3.72444C9.69258 3.66182 9.4682 3.67978 9.27235 3.77475C9.07727 3.8714 8.92573 4.03796 8.84791 4.24129C8.77008 4.44462 8.77167 4.66979 8.85235 4.872L8.9038 4.977L9.7753 6.51L6.95605 11.3925H4.7479Z" fill="white"/>
</svg>
