<svg width="16" height="13" viewBox="0 0 16 13" fill="none" xmlns="http://www.w3.org/2000/svg">
<path d="M0.63499 2.64993C0.817823 2.43051 1.04672 2.25404 1.30544 2.13306C1.56415 2.01207 1.84633 1.94953 2.13194 1.94988L12.6411 1.94988L12.6684 1.72173C12.7243 1.2475 12.9522 0.810254 13.309 0.492888C13.6658 0.175523 14.1266 9.99843e-05 14.6041 -0.00012214L14.7484 -0.000122127C14.9208 -0.000122112 15.0862 0.0683599 15.2081 0.190259C15.33 0.312157 15.3984 0.477487 15.3984 0.649878C15.3984 0.822269 15.33 0.987599 15.2081 1.1095C15.0862 1.2314 14.9208 1.29988 14.7484 1.29988L14.6041 1.29988C14.4449 1.2999 14.2913 1.35835 14.1723 1.46414C14.0533 1.56994 13.9773 1.71571 13.9587 1.87383L13.0643 9.47883C12.9714 10.2697 12.5914 10.999 11.9964 11.5283C11.4014 12.0575 10.6327 12.3499 9.83639 12.3499L3.04844 12.3499C2.87605 12.3499 2.71072 12.2814 2.58882 12.1595C2.46692 12.0376 2.39844 11.8723 2.39844 11.6999C2.39844 11.5275 2.46692 11.3622 2.58882 11.2403C2.71072 11.1184 2.87605 11.0499 3.04844 11.0499L9.83639 11.0499C10.2387 11.0487 10.6308 10.9232 10.959 10.6905C11.2871 10.4577 11.5353 10.1292 11.6694 9.74988L3.92139 9.74988C3.1594 9.74992 2.42162 9.48223 1.83695 8.99356C1.25229 8.5049 0.857916 7.82633 0.72274 7.07643L0.212489 4.24633C0.161556 3.96553 0.173004 3.67697 0.246017 3.40109C0.31903 3.12521 0.451825 2.86877 0.63499 2.64993ZM1.48844 4.01558L1.99934 6.84568C2.0805 7.29613 2.31753 7.70367 2.66893 7.99696C3.02032 8.29024 3.46369 8.45057 3.92139 8.44988L11.8761 8.44988L12.4877 3.24988L2.13194 3.24988C2.03645 3.24931 1.94202 3.26978 1.85534 3.30984C1.76867 3.34991 1.69188 3.40857 1.63045 3.48167C1.56902 3.55477 1.52444 3.64051 1.4999 3.73279C1.47535 3.82506 1.47144 3.92162 1.48844 4.01558Z" fill="white"/>
</svg>
