<svg width="16" height="13" viewBox="0 0 16 13" fill="none" xmlns="http://www.w3.org/2000/svg">
<path d="M1.0366 2.84927C1.21943 2.62985 1.44834 2.45339 1.70705 2.3324C1.96576 2.21141 2.24794 2.14887 2.53355 2.14922L13.0427 2.14922L13.07 1.92107C13.1259 1.44684 13.3538 1.00959 13.7106 0.692229C14.0674 0.374864 14.5282 0.199441 15.0057 0.199219L15.15 0.199219C15.3224 0.199219 15.4878 0.267701 15.6097 0.389599C15.7316 0.511498 15.8 0.676828 15.8 0.849219C15.8 1.02161 15.7316 1.18694 15.6097 1.30884C15.4878 1.43074 15.3224 1.49922 15.15 1.49922L15.0057 1.49922C14.8465 1.49924 14.6929 1.55769 14.5739 1.66348C14.4549 1.76928 14.3789 1.91506 14.3603 2.07317L13.4659 9.67817C13.373 10.4691 12.993 11.1984 12.398 11.7276C11.803 12.2569 11.0343 12.5492 10.238 12.5492L3.45005 12.5492C3.27766 12.5492 3.11233 12.4807 2.99043 12.3588C2.86853 12.2369 2.80005 12.0716 2.80005 11.8992C2.80005 11.7268 2.86853 11.5615 2.99043 11.4396C3.11233 11.3177 3.27766 11.2492 3.45005 11.2492L10.238 11.2492C10.6403 11.2481 11.0324 11.1225 11.3606 10.8898C11.6888 10.6571 11.9369 10.3285 12.071 9.94922L4.323 9.94922C3.56101 9.94927 2.82323 9.68157 2.23856 9.1929C1.6539 8.70424 1.25953 8.02567 1.12435 7.27577L0.6141 4.44567C0.563167 4.16487 0.574615 3.87631 0.647628 3.60043C0.720642 3.32455 0.853436 3.06811 1.0366 2.84927ZM1.89005 4.21492L2.40095 7.04502C2.48212 7.49547 2.71915 7.90301 3.07054 8.1963C3.42193 8.48958 3.8653 8.64991 4.323 8.64922L12.2777 8.64922L12.8893 3.44922L2.53355 3.44922C2.43807 3.44865 2.34363 3.46912 2.25695 3.50918C2.17028 3.54925 2.09349 3.60791 2.03206 3.68101C1.97063 3.75411 1.92605 3.83985 1.90151 3.93213C1.87696 4.0244 1.87305 4.12096 1.89005 4.21492Z" fill="white"/>
</svg>
