<svg width="22" height="21" viewBox="0 0 22 21" fill="none" xmlns="http://www.w3.org/2000/svg">
<path fill-rule="evenodd" clip-rule="evenodd" d="M6.51675 0.0627C7.6311 0.0114 7.9864 0 10.825 0C13.6636 0 14.0189 0.01235 15.1323 0.0627C16.2457 0.11305 17.0057 0.2907 17.6707 0.54815C18.367 0.8113 18.9988 1.22265 19.5213 1.75465C20.0533 2.2762 20.4637 2.907 20.7259 3.6043C20.9843 4.2693 21.161 5.0293 21.2123 6.1408C21.2636 7.25705 21.275 7.61235 21.275 10.45C21.275 13.2886 21.2626 13.6439 21.2123 14.7582C21.1619 15.8698 20.9843 16.6297 20.7259 17.2948C20.4637 17.9921 20.0526 18.624 19.5213 19.1463C18.9988 19.6783 18.367 20.0887 17.6707 20.3509C17.0057 20.6093 16.2457 20.786 15.1342 20.8373C14.0189 20.8886 13.6636 20.9 10.825 20.9C7.9864 20.9 7.6311 20.8876 6.51675 20.8373C5.40525 20.7869 4.64525 20.6093 3.98025 20.3509C3.28287 20.0887 2.65103 19.6776 2.1287 19.1463C1.59706 18.6244 1.18565 17.9929 0.92315 17.2957C0.6657 16.6307 0.489 15.8707 0.4377 14.7592C0.3864 13.6429 0.375 13.2877 0.375 10.45C0.375 7.6114 0.38735 7.2561 0.4377 6.1427C0.48805 5.0293 0.6657 4.2693 0.92315 3.6043C1.18604 2.90708 1.59776 2.27555 2.12965 1.7537C2.65124 1.22218 3.28245 0.810771 3.9793 0.54815C4.6443 0.2907 5.4043 0.114 6.5158 0.0627H6.51675ZM15.0477 1.9437C13.9457 1.89335 13.6151 1.8829 10.825 1.8829C8.03485 1.8829 7.70425 1.89335 6.60225 1.9437C5.5829 1.99025 5.03 2.1603 4.6614 2.30375C4.17405 2.49375 3.8254 2.7189 3.45965 3.08465C3.11294 3.42195 2.84612 3.83257 2.67875 4.2864C2.5353 4.655 2.36525 5.2079 2.3187 6.22725C2.26835 7.32925 2.2579 7.65985 2.2579 10.45C2.2579 13.2401 2.26835 13.5707 2.3187 14.6727C2.36525 15.6921 2.5353 16.245 2.67875 16.6136C2.84595 17.0668 3.1129 17.4781 3.45965 17.8153C3.7969 18.1621 4.20825 18.4291 4.6614 18.5963C5.03 18.7397 5.5829 18.9097 6.60225 18.9563C7.70425 19.0067 8.0339 19.0171 10.825 19.0171C13.6161 19.0171 13.9457 19.0067 15.0477 18.9563C16.0671 18.9097 16.62 18.7397 16.9886 18.5963C17.476 18.4062 17.8246 18.1811 18.1903 17.8153C18.5371 17.4781 18.8041 17.0668 18.9713 16.6136C19.1147 16.245 19.2847 15.6921 19.3313 14.6727C19.3817 13.5707 19.3921 13.2401 19.3921 10.45C19.3921 7.65985 19.3817 7.32925 19.3313 6.22725C19.2847 5.2079 19.1147 4.655 18.9713 4.2864C18.7812 3.79905 18.5561 3.4504 18.1903 3.08465C17.853 2.73797 17.4424 2.47115 16.9886 2.30375C16.62 2.1603 16.0671 1.99025 15.0477 1.9437ZM9.49025 13.6714C10.2357 13.9817 11.0657 14.0236 11.8386 13.7899C12.6115 13.5562 13.2792 13.0615 13.7278 12.3901C14.1764 11.7188 14.3781 10.9125 14.2982 10.109C14.2184 9.30557 13.8622 8.55472 13.2902 7.98475C12.9257 7.6204 12.4849 7.34142 11.9995 7.16789C11.5142 6.99436 10.9964 6.93059 10.4835 6.98118C9.97053 7.03178 9.47519 7.19547 9.03311 7.46047C8.59103 7.72548 8.21321 8.08521 7.92684 8.51376C7.64047 8.94231 7.45268 9.42902 7.37699 9.93886C7.3013 10.4487 7.33959 10.969 7.48911 11.4622C7.63863 11.9555 7.89566 12.4095 8.24168 12.7915C8.58771 13.1735 9.01413 13.474 9.49025 13.6714ZM7.0269 6.6519C7.52567 6.15313 8.1178 5.75748 8.76948 5.48754C9.42116 5.21761 10.1196 5.07868 10.825 5.07868C11.5304 5.07868 12.2288 5.21761 12.8805 5.48754C13.5322 5.75748 14.1243 6.15313 14.6231 6.6519C15.1219 7.15067 15.5175 7.7428 15.7875 8.39448C16.0574 9.04616 16.1963 9.74463 16.1963 10.45C16.1963 11.1554 16.0574 11.8538 15.7875 12.5055C15.5175 13.1572 15.1219 13.7493 14.6231 14.2481C13.6158 15.2554 12.2496 15.8213 10.825 15.8213C9.40044 15.8213 8.03422 15.2554 7.0269 14.2481C6.01958 13.2408 5.45368 11.8746 5.45368 10.45C5.45368 9.02544 6.01958 7.65922 7.0269 6.6519ZM17.3876 5.8786C17.5112 5.76201 17.6101 5.6218 17.6786 5.46628C17.747 5.31075 17.7836 5.14308 17.786 4.97318C17.7885 4.80329 17.7569 4.63462 17.693 4.47717C17.6291 4.31972 17.5343 4.17668 17.4142 4.05654C17.294 3.93639 17.151 3.84157 16.9935 3.77769C16.8361 3.71381 16.6674 3.68218 16.4975 3.68465C16.3276 3.68713 16.1599 3.72367 16.0044 3.79211C15.8489 3.86055 15.7087 3.9595 15.5921 4.0831C15.3653 4.32348 15.2412 4.64277 15.246 4.97318C15.2508 5.3036 15.3842 5.61913 15.6179 5.8528C15.8516 6.08647 16.1671 6.21987 16.4975 6.22468C16.8279 6.2295 17.1472 6.10536 17.3876 5.8786Z" fill="white"/>
</svg>
