<svg width="22" height="21" viewBox="0 0 22 21" fill="none" xmlns="http://www.w3.org/2000/svg">
<path d="M4.1887 0C1.88524 0 0 1.84331 0 4.09562V16.8051C0 19.0573 1.8852 20.9 4.1887 20.9H17.187C19.4905 20.9 21.375 19.0573 21.375 16.8051V4.09562C21.375 1.84335 19.4905 0 17.187 0H4.1887ZM5.24222 3.44892C6.34668 3.44892 7.02698 4.15787 7.04798 5.08977C7.04798 6.00109 6.34664 6.72996 5.22086 6.72996H5.20014C4.1167 6.72996 3.41643 6.00113 3.41643 5.08977C3.41643 4.15789 4.13789 3.44892 5.2422 3.44892H5.24222ZM14.76 7.8045C16.8841 7.8045 18.4764 9.16197 18.4764 12.0791V17.5248H15.2483V12.4442C15.2483 11.1675 14.7811 10.2965 13.6129 10.2965C12.7211 10.2965 12.1895 10.8835 11.9562 11.4507C11.8709 11.6536 11.8499 11.937 11.8499 12.2208V17.5248H8.62191C8.62191 17.5248 8.66427 8.91838 8.62191 8.02723H11.8506V9.37219C12.2796 8.72505 13.0469 7.80448 14.76 7.80448V7.8045ZM3.60683 8.02792H6.83486V17.5249H3.60683V8.02792Z" fill="white"/>
</svg>
