<svg width="84" height="21" viewBox="0 0 84 21" fill="none" xmlns="http://www.w3.org/2000/svg">
<path d="M0.0118324 19.9419V10.6578C-0.0361924 9.04546 0.246275 7.44033 0.841945 5.94063C1.33519 4.74985 2.11628 3.69927 3.11557 2.88254C4.06848 2.14294 5.16178 1.60349 6.3295 1.29673C7.56459 0.95993 8.83967 0.791153 10.1201 0.794986H10.8547V5.92232H9.19449C7.79506 5.92232 6.76292 6.25926 6.08708 6.92948C5.41124 7.59969 5.07699 8.65812 5.07699 10.0974V19.9419H0.0118324Z" fill="white"/>
<path d="M40.8599 0.000931893H21.5433C20.9295 0.00182575 20.3163 0.0385122 19.7068 0.110803C17.8265 0.325739 16.0972 1.24151 14.8657 2.67447C14.0584 3.61094 13.4778 4.71989 13.1687 5.91568C12.8132 7.18061 12.6315 8.48781 12.6288 9.80147C12.6234 11.3495 12.8424 12.8902 13.2789 14.3758C13.6394 15.7223 14.3908 16.9327 15.4387 17.855C16.5458 18.7867 17.8756 19.4175 19.299 19.6862C20.0221 19.8507 20.7613 19.9343 21.5029 19.9353H40.8452C41.7248 19.9324 42.5998 19.8092 43.4458 19.569C45.2384 19.1806 46.8148 18.1249 47.8534 16.6172C48.4285 15.7527 48.867 14.8053 49.1537 13.8081C49.5154 12.5202 49.6849 11.1862 49.6569 9.84908C49.701 7.93051 49.2801 6.02966 48.4301 4.30789C47.6227 2.583 46.1736 1.23924 44.3897 0.561276C43.2628 0.174528 42.0773 -0.0150452 40.8856 0.000931893H40.8599ZM40.8856 4.21267C41.2601 4.21516 41.6318 4.2757 41.9876 4.39213C42.797 4.70876 43.4726 5.29322 43.9012 6.04753C44.4522 6.91185 44.7277 8.20833 44.7277 9.93697C44.6799 11.8597 44.3604 13.2331 43.791 14.1121C43.3327 14.8826 42.6178 15.4685 41.7709 15.7675C41.4754 15.8413 41.1719 15.8782 40.8673 15.8774H21.5433C21.112 15.8732 20.6842 15.8003 20.2761 15.6613C19.6895 15.4855 19.1648 15.1478 18.7628 14.6871C18.0282 13.8228 17.6192 12.2992 17.536 10.1164V9.57806C17.536 7.65897 17.9927 6.19402 18.906 5.1832C19.3604 4.78395 19.9047 4.5 20.4928 4.3555C20.8348 4.26013 21.1881 4.21086 21.5433 4.20901H40.8856V4.21267Z" fill="white"/>
<path d="M67.2951 16.8113C66.6933 17.8022 65.8324 18.6112 64.8047 19.1515C63.8069 19.6842 62.7159 20.0211 61.5908 20.1441C60.5954 20.2546 59.5951 20.3145 58.5936 20.3235C56.9655 20.3553 55.3706 19.8621 54.0463 18.9172C52.7461 17.982 52.0959 16.4341 52.0959 14.2733C52.0959 12.2589 52.6861 10.8196 53.8664 9.95531C55.2099 9.02574 56.7584 8.43278 58.3806 8.22666C58.6712 8.22188 58.9606 8.18628 59.2437 8.12045C59.6261 8.04089 60.0122 7.98099 60.4007 7.94099C62.5164 7.65289 63.5755 7.02784 63.5779 6.06585C63.5967 5.73305 63.4928 5.40488 63.2858 5.14315C63.0788 4.88142 62.7829 4.7042 62.454 4.64485C61.787 4.4415 61.0945 4.33301 60.3971 4.32256C59.7827 4.3132 59.1713 4.40984 58.5899 4.60823C58.3332 4.69896 58.0981 4.84183 57.8996 5.0278C57.7011 5.21377 57.5434 5.43879 57.4366 5.68863H52.6028C52.7709 4.2517 53.496 2.93729 54.623 2.02625C55.9257 0.920207 57.7794 0.367188 60.184 0.367188C62.8776 0.367188 64.899 0.823764 66.2483 1.73692C66.9152 2.17226 67.4583 2.77173 67.825 3.47743C68.1918 4.18313 68.3698 4.97121 68.3419 5.76554V12.3139C68.3346 14.233 67.9856 15.7321 67.2951 16.8113ZM63.6477 10.2959C62.7472 10.7103 61.8036 11.0247 60.8342 11.2335L59.1739 11.5997C58.4854 11.751 57.8454 12.0707 57.3117 12.53C56.9932 12.9976 56.8172 13.547 56.8048 14.1121C56.7895 14.4292 56.8393 14.746 56.9511 15.0433C57.0629 15.3405 57.2343 15.6119 57.4549 15.8408C57.9872 16.2583 58.6563 16.4633 59.3319 16.4157C60.6787 16.4157 61.7377 16.0324 62.5091 15.2658C63.2804 14.4967 63.6624 13.4346 63.6624 12.0978L63.6477 10.2959Z" fill="white"/>
<path d="M71.2692 19.9419V10.6578C71.2211 9.04546 71.5036 7.44033 72.0993 5.94063C72.5899 4.74841 73.3715 3.69724 74.3729 2.88254C75.3258 2.14294 76.4191 1.60349 77.5868 1.29673C78.8219 0.95993 80.097 0.791153 81.3774 0.794986H82.112V5.92232H80.4518C79.0561 5.92232 78.0239 6.25926 77.3481 6.92948C76.6722 7.59969 76.338 8.65812 76.338 10.0974V19.9419H71.2692Z" fill="white"/>
<path d="M82.6006 20.6027C82.323 20.6035 82.0513 20.522 81.8201 20.3687C81.5889 20.2155 81.4085 19.9972 81.3017 19.7416C81.195 19.4861 81.1666 19.2047 81.2204 18.933C81.2741 18.6614 81.4074 18.4118 81.6035 18.2158C81.7996 18.0197 82.0496 17.8861 82.3219 17.8318C82.5941 17.7776 82.8765 17.8051 83.1331 17.9108C83.3897 18.0166 83.609 18.1959 83.7633 18.4261C83.9177 18.6562 84.0001 18.9269 84.0001 19.2037C84.0006 19.3873 83.9647 19.5691 83.8946 19.7388C83.8245 19.9085 83.7215 20.0628 83.5915 20.1928C83.4615 20.3227 83.3071 20.4258 83.137 20.4962C82.967 20.5665 82.7847 20.6027 82.6006 20.6027ZM82.6006 18.1233C82.3813 18.116 82.1647 18.1742 81.9788 18.2904C81.7928 18.4066 81.6458 18.5756 81.5568 18.7756C81.4677 18.9756 81.4406 19.1976 81.4789 19.413C81.5171 19.6285 81.6191 19.8277 81.7716 19.985C81.9242 20.1424 82.1204 20.2507 82.3351 20.2962C82.5498 20.3416 82.7732 20.3221 82.9767 20.2401C83.1802 20.1582 83.3545 20.0175 83.4773 19.8361C83.6 19.6547 83.6657 19.4409 83.6658 19.222C83.6723 19.0791 83.6495 18.9364 83.5988 18.8026C83.548 18.6687 83.4704 18.5467 83.3707 18.4438C83.271 18.3409 83.1512 18.2595 83.0188 18.2044C82.8864 18.1492 82.7441 18.1217 82.6006 18.1233ZM82.8504 19.9545L82.5786 19.3795H82.4207V19.9545H82.0901V18.4603H82.6961C82.7599 18.4573 82.8236 18.4672 82.8834 18.4894C82.9432 18.5116 82.9979 18.5456 83.0442 18.5893C83.0905 18.6331 83.1275 18.6858 83.1529 18.7442C83.1783 18.8025 83.1916 18.8654 83.192 18.929C83.1914 19.0145 83.1647 19.0978 83.1155 19.1678C83.0663 19.2378 82.9969 19.2912 82.9165 19.3209L83.2287 19.9472L82.8504 19.9545ZM82.6557 18.7349H82.4243V19.1195H82.6557C82.6833 19.1233 82.7113 19.1211 82.738 19.1132C82.7647 19.1053 82.7893 19.0918 82.8103 19.0736C82.8313 19.0553 82.8481 19.0328 82.8596 19.0076C82.8711 18.9824 82.8771 18.9549 82.8771 18.9272C82.8771 18.8995 82.8711 18.8721 82.8596 18.8468C82.8481 18.8216 82.8313 18.7991 82.8103 18.7808C82.7893 18.7626 82.7647 18.7491 82.738 18.7412C82.7113 18.7333 82.6833 18.7311 82.6557 18.7349Z" fill="white"/>
</svg>
