<svg width="21" height="21" viewBox="0 0 21 21" fill="none" xmlns="http://www.w3.org/2000/svg">
<path d="M8.80295 17.355C10.7006 17.3546 12.5436 16.7194 14.0384 15.5504L18.7383 20.25L20.25 18.7383L15.5502 14.0388C16.7198 12.5438 17.3554 10.7005 17.3559 8.80249C17.3559 4.08686 13.5188 0.25 8.80295 0.25C4.08707 0.25 0.25 4.08686 0.25 8.80249C0.25 13.5181 4.08707 17.355 8.80295 17.355ZM8.80295 2.38812C12.3407 2.38812 15.2177 5.26497 15.2177 8.80249C15.2177 12.34 12.3407 15.2169 8.80295 15.2169C5.26524 15.2169 2.38824 12.34 2.38824 8.80249C2.38824 5.26497 5.26524 2.38812 8.80295 2.38812Z" fill="white"/>
</svg>
