<svg width="18" height="18" viewBox="0 0 18 18" fill="none" xmlns="http://www.w3.org/2000/svg">
<path d="M8.92515 9.50117C9.72121 9.50117 10.4994 9.26511 11.1613 8.82284C11.8232 8.38056 12.3391 7.75195 12.6438 7.01647C12.9484 6.281 13.0281 5.47171 12.8728 4.69093C12.7175 3.91016 12.3342 3.19297 11.7712 2.63007C11.2083 2.06716 10.4912 1.68382 9.71038 1.52851C8.92961 1.37321 8.12032 1.45292 7.38484 1.75756C6.64937 2.0622 6.02075 2.5781 5.57848 3.24C5.13621 3.90191 4.90015 4.6801 4.90015 5.47617C4.90121 6.54334 5.32562 7.5665 6.08022 8.3211C6.83482 9.0757 7.85798 9.50011 8.92515 9.50117ZM8.92515 2.79284C9.45586 2.79284 9.97465 2.95021 10.4159 3.24506C10.8572 3.53991 11.2011 3.95899 11.4042 4.44931C11.6073 4.93962 11.6605 5.47915 11.5569 5.99966C11.4534 6.52018 11.1978 6.9983 10.8225 7.37358C10.4473 7.74885 9.96915 8.00441 9.44864 8.10795C8.92812 8.21148 8.38859 8.15834 7.89828 7.95525C7.40796 7.75215 6.98888 7.40822 6.69404 6.96695C6.39919 6.52568 6.24181 6.00689 6.24181 5.47617C6.24181 4.76451 6.52452 4.08199 7.02774 3.57877C7.53096 3.07555 8.21348 2.79284 8.92515 2.79284Z" fill="white"/>
<path d="M8.9251 10.0762C7.24817 10.078 5.64047 10.7329 4.4547 11.8971C3.26894 13.0613 2.60196 14.6397 2.6001 16.2862C2.6001 16.4692 2.67414 16.6447 2.80594 16.7741C2.93773 16.9035 3.11649 16.9762 3.30288 16.9762C3.48926 16.9762 3.66802 16.9035 3.79981 16.7741C3.93161 16.6447 4.00565 16.4692 4.00565 16.2862C4.00565 15.0052 4.52395 13.7766 5.44652 12.8708C6.3691 11.965 7.62038 11.4562 8.9251 11.4562C10.2298 11.4562 11.4811 11.965 12.4037 12.8708C13.3262 13.7766 13.8445 15.0052 13.8445 16.2862C13.8445 16.4692 13.9186 16.6447 14.0504 16.7741C14.1822 16.9035 14.3609 16.9762 14.5473 16.9762C14.7337 16.9762 14.9125 16.9035 15.0443 16.7741C15.1761 16.6447 15.2501 16.4692 15.2501 16.2862C15.2482 14.6397 14.5813 13.0613 13.3955 11.8971C12.2097 10.7329 10.602 10.078 8.9251 10.0762Z" fill="white"/>
</svg>
