<svg width="26" height="21" viewBox="0 0 26 21" fill="none" xmlns="http://www.w3.org/2000/svg">
<path d="M25.263 4.85363C25.1535 7.21846 23.4535 10.4536 20.1678 14.5638C16.7713 18.8548 13.8939 21.0003 11.5392 21.0003C10.0809 21.0003 8.84871 19.6913 7.84157 17.0815C7.17014 14.684 6.4999 12.2865 5.82133 9.89479C5.0749 7.28496 4.27371 5.97596 3.41062 5.97596C3.22609 5.97596 2.56895 6.36096 1.45228 7.11929L0.274902 5.64346C1.50705 4.58646 2.72728 3.53763 3.9249 2.48179C5.56776 1.09929 6.80824 0.37596 7.62966 0.30246C9.57371 0.12396 10.7725 1.41196 11.2249 4.18163C11.7106 7.16363 12.0463 9.02329 12.238 9.74663C12.7999 12.2246 13.4166 13.4601 14.0868 13.4601C14.607 13.4601 15.3951 12.6575 16.4428 11.0498C17.4904 9.44213 18.0511 8.22063 18.1273 7.38296C18.2773 5.99463 17.7166 5.30396 16.4428 5.30396C15.8475 5.30396 15.2309 5.43696 14.5939 5.70296C15.8201 1.79113 18.1678 -0.109373 21.6332 0.0037934C24.2011 0.0702934 25.413 1.69079 25.263 4.85246V4.85363Z" fill="white"/>
</svg>
