<svg width="16" height="14" viewBox="0 0 16 14" fill="none" xmlns="http://www.w3.org/2000/svg">
<path d="M4.42722 0.399902C5.15886 0.410862 5.87454 0.607546 6.50199 0.970094C7.12944 1.33264 7.64644 1.84821 8.00078 2.46475C8.35512 1.84821 8.87212 1.33264 9.49957 0.970094C10.127 0.607546 10.8427 0.410862 11.5743 0.399902C12.7407 0.448702 13.8395 0.940049 14.6308 1.7666C15.4222 2.59315 15.8417 3.68771 15.7976 4.81116C15.7976 7.65626 12.688 10.7635 10.0799 12.8703C9.49764 13.3415 8.76139 13.5999 8.00078 13.5999C7.24017 13.5999 6.50393 13.3415 5.92162 12.8703C3.31357 10.7635 0.203926 7.65626 0.203926 4.81116C0.159906 3.68771 0.579383 2.59315 1.37071 1.7666C2.16205 0.940049 3.2609 0.448702 4.42722 0.399902ZM6.75653 11.913C7.1048 12.1954 7.54548 12.3503 8.00078 12.3503C8.45609 12.3503 8.89676 12.1954 9.24503 11.913C12.5834 9.21554 14.4982 6.6276 14.4982 4.81116C14.5426 4.01946 14.2601 3.24296 13.7124 2.65102C13.1647 2.05908 12.3961 1.69972 11.5743 1.65132C10.7526 1.69972 9.98402 2.05908 9.43629 2.65102C8.88856 3.24296 8.6061 4.01946 8.65052 4.81116C8.65052 4.97711 8.58206 5.13626 8.46022 5.2536C8.33837 5.37095 8.1731 5.43687 8.00078 5.43687C7.82846 5.43687 7.6632 5.37095 7.54135 5.2536C7.4195 5.13626 7.35104 4.97711 7.35104 4.81116C7.39546 4.01946 7.113 3.24296 6.56527 2.65102C6.01755 2.05908 5.24899 1.69972 4.42722 1.65132C3.60546 1.69972 2.8369 2.05908 2.28917 2.65102C1.74144 3.24296 1.45899 4.01946 1.5034 4.81116C1.5034 6.6276 3.41818 9.21554 6.75653 11.9105V11.913Z" fill="white"/>
</svg>
